<svg width="37" height="35" viewBox="0 0 37 35" fill="none" xmlns="http://www.w3.org/2000/svg">
<path fill-rule="evenodd" clip-rule="evenodd" d="M4.7793 34.6847C14.1777 28.611 23.395 29.0641 32.4719 34.6034C28.8229 33.0389 25.3196 32.0197 22.0465 31.8668C25.0567 32.4618 27.3845 33.5374 29.1607 35.0001C22.0901 35.0001 15.0195 35.0001 7.94888 35.0001C9.58338 33.7413 11.8227 32.7579 14.5305 31.988C10.9427 32.4329 7.72277 33.3722 4.7793 34.6847Z" fill="white"/>
<path fill-rule="evenodd" clip-rule="evenodd" d="M0 31.6632C1.61952 29.9912 3.40522 29.5767 5.4538 31.1344C4.62838 31.1137 3.83292 31.1922 3.1151 31.5255C3.81248 31.7569 4.56572 31.845 5.39932 31.7238C3.64086 33.2278 1.83882 33.1438 0 31.6632Z" fill="white"/>
<path fill-rule="evenodd" clip-rule="evenodd" d="M37.0002 31.6632C35.382 29.9912 33.595 29.5767 31.5464 31.1344C32.3718 31.1137 33.1673 31.1922 33.8865 31.5255C33.1877 31.7569 32.4345 31.845 31.6022 31.7238C33.3607 33.2278 35.1614 33.1438 37.0002 31.6632Z" fill="white"/>
<path fill-rule="evenodd" clip-rule="evenodd" d="M36.8373 20.9809C31.5265 20.7509 27.8884 22.8953 26.875 28.7596C28.2276 27.414 29.6836 26.2819 31.4039 25.6994C30.5935 27.1964 29.4684 28.5406 27.8843 29.6603C33.1692 29.3876 36.0568 26.3839 36.8373 20.9809Z" fill="white"/>
<path fill-rule="evenodd" clip-rule="evenodd" d="M0.369141 20.9809C5.67992 20.7509 9.31942 22.8953 10.3315 28.7596C8.9789 27.414 7.52283 26.2819 5.80251 25.6994C6.61295 27.1964 7.7394 28.5406 9.32215 29.6603C4.03724 29.3876 1.14962 26.3839 0.369141 20.9809Z" fill="white"/>
<path fill-rule="evenodd" clip-rule="evenodd" d="M3.23633 16.3066C5.54779 16.4182 7.042 17.4911 7.25449 20.0734C6.72055 19.4371 6.13213 18.8876 5.40886 18.5667C5.70307 19.2484 6.13894 19.8751 6.78184 20.4232C4.50171 20.0968 3.36573 18.6796 3.23633 16.3066Z" fill="white"/>
<path fill-rule="evenodd" clip-rule="evenodd" d="M33.7774 16.3066C31.466 16.4182 29.9718 17.4911 29.7593 20.0734C30.2932 19.4371 30.8803 18.8876 31.6049 18.5667C31.3107 19.2484 30.8748 19.8751 30.2319 20.4232C32.5121 20.0968 33.648 18.6796 33.7774 16.3066Z" fill="white"/>
<path fill-rule="evenodd" clip-rule="evenodd" d="M18.606 0C20.7132 1.81246 22.0208 4.35349 23.0533 7.14242C23.2412 6.86421 23.4292 6.58601 23.6172 6.3078C24.9942 8.38057 25.5799 10.7205 25.6698 13.2271C25.9654 12.9957 26.2596 12.7657 26.5552 12.5344C27.6953 16.9181 28.0412 21.3983 25.1223 26.2766C23.2181 29.4608 19.4778 29.2514 19.2721 25.4144C19.0705 21.6504 18.8689 17.8863 18.666 14.1223C18.4004 17.9745 18.1348 21.828 17.8692 25.6816C17.6689 28.5848 14.7772 29.5517 12.5706 27.0065C9.09458 22.9946 9.55633 17.2707 10.6569 12.4531C10.9048 12.7726 11.1527 13.0908 11.4006 13.4103C11.4714 10.8817 11.7902 8.42877 13.4737 6.38906C13.6753 6.66727 13.8769 6.94547 14.0785 7.22368C15.1804 4.25019 16.6446 1.77941 18.606 0ZM18.5066 7.18374C19.9954 9.59668 19.915 11.54 18.5066 13.0839C17.026 11.237 17.3025 9.24823 18.5066 7.18374ZM23.4197 11.0924C22.7849 13.8634 21.3697 15.18 19.2925 15.2654C19.5377 12.9007 21.1259 11.6915 23.4197 11.0924ZM24.0435 15.3453C23.4088 18.1163 21.9936 19.433 19.9164 19.5184C20.1615 17.1536 21.7497 15.9444 24.0435 15.3453ZM23.9032 19.0487C23.2685 21.8198 21.8533 23.1364 19.7761 23.2218C20.0213 20.8571 21.6081 19.6478 23.9032 19.0487ZM13.6167 11.0924C14.2514 13.8634 15.6667 15.18 17.7438 15.2654C17.4987 12.9007 15.9105 11.6915 13.6167 11.0924ZM12.9929 15.3453C13.6276 18.1163 15.0428 19.433 17.12 19.5184C16.8748 17.1536 15.2866 15.9444 12.9929 15.3453ZM13.1332 19.0487C13.7679 21.8198 15.1831 23.1364 17.2603 23.2218C17.0151 20.8571 15.4283 19.6478 13.1332 19.0487Z" fill="white"/>
</svg>
